<svg width="20" height="20" viewBox="0 0 20 20" fill="none" xmlns="http://www.w3.org/2000/svg">
<path d="M16.6673 10.8333C16.6673 15 13.7507 17.0833 10.284 18.2916C10.1025 18.3532 9.90527 18.3502 9.72565 18.2833C6.25065 17.0833 3.33398 15 3.33398 10.8333V4.99997C3.33398 4.77895 3.42178 4.56699 3.57806 4.41071C3.73434 4.25443 3.9463 4.16663 4.16732 4.16663C5.83398 4.16663 7.91732 3.16663 9.36732 1.89997C9.54386 1.74913 9.76845 1.66626 10.0007 1.66626C10.2329 1.66626 10.4574 1.74913 10.634 1.89997C12.0923 3.17497 14.1673 4.16663 15.834 4.16663C16.055 4.16663 16.267 4.25443 16.4232 4.41071C16.5795 4.56699 16.6673 4.77895 16.6673 4.99997V10.8333Z" stroke="white" stroke-linecap="round" stroke-linejoin="round"/>
</svg>
