<svg width="20" height="20" viewBox="0 0 20 20" fill="none" xmlns="http://www.w3.org/2000/svg">
<path d="M14.166 9.83712C14.166 9.54904 14.166 9.40504 14.2093 9.27671C14.3353 8.90371 14.6675 8.75904 15.0003 8.60746C15.3743 8.43704 15.5613 8.35187 15.7467 8.33687C15.9571 8.31986 16.1678 8.36521 16.3477 8.46612C16.5861 8.59987 16.7523 8.85412 16.9226 9.06087C17.7088 10.0157 18.1018 10.4932 18.2456 11.0197C18.3617 11.4445 18.3617 11.8889 18.2456 12.3137C18.0358 13.0816 17.3731 13.7254 16.8825 14.3212C16.6316 14.626 16.5061 14.7784 16.3477 14.8673C16.1678 14.9682 15.9571 15.0135 15.7467 14.9965C15.5613 14.9815 15.3743 14.8964 15.0003 14.726C14.6675 14.5744 14.3353 14.4297 14.2093 14.0567C14.166 13.9284 14.166 13.7844 14.166 13.4963V9.83712Z" stroke="white"/>
<path d="M5.83268 9.83718C5.83268 9.47452 5.8225 9.14852 5.52927 8.89352C5.42262 8.80077 5.28122 8.73635 4.99844 8.60752C4.62436 8.43718 4.43732 8.35202 4.25198 8.33702C3.69594 8.29202 3.39678 8.67152 3.07612 9.06102C2.28997 10.0158 1.8969 10.4933 1.75307 11.0198C1.637 11.4447 1.637 11.889 1.75307 12.3138C1.96285 13.0818 2.62562 13.7254 3.11619 14.3213C3.42542 14.6969 3.72082 15.0396 4.25198 14.9967C4.43732 14.9817 4.62436 14.8964 4.99844 14.7261C5.28122 14.5973 5.42262 14.5328 5.52927 14.4401C5.8225 14.1851 5.83268 13.8592 5.83268 13.4964V9.83718Z" stroke="white"/>
<path d="M16.6673 8.74996V7.49996C16.6673 4.2783 13.6826 1.66663 10.0007 1.66663C6.31875 1.66663 3.33398 4.2783 3.33398 7.49996V8.74996" stroke="white"/>
<path d="M16.6667 14.5834C16.6667 18.3334 13.3333 18.3334 10 18.3334" stroke="white"/>
</svg>
