<svg width="20" height="20" viewBox="0 0 20 20" fill="none" xmlns="http://www.w3.org/2000/svg">
<path d="M9.99935 18.3333C14.6017 18.3333 18.3327 14.6023 18.3327 9.99996C18.3327 5.39759 14.6017 1.66663 9.99935 1.66663C5.39698 1.66663 1.66602 5.39759 1.66602 9.99996C1.66602 14.6023 5.39698 18.3333 9.99935 18.3333Z" stroke="white" stroke-linecap="round" stroke-linejoin="round"/>
<path d="M10 10.8334C11.3807 10.8334 12.5 9.71409 12.5 8.33337C12.5 6.95266 11.3807 5.83337 10 5.83337C8.61929 5.83337 7.5 6.95266 7.5 8.33337C7.5 9.71409 8.61929 10.8334 10 10.8334Z" stroke="white" stroke-linecap="round" stroke-linejoin="round"/>
<path d="M5.83398 17.2183V15.8333C5.83398 15.3913 6.00958 14.9673 6.32214 14.6548C6.6347 14.3422 7.05862 14.1666 7.50065 14.1666H12.5007C12.9427 14.1666 13.3666 14.3422 13.6792 14.6548C13.9917 14.9673 14.1673 15.3913 14.1673 15.8333V17.2183" stroke="white" stroke-linecap="round" stroke-linejoin="round"/>
</svg>
