<svg width="20" height="20" viewBox="0 0 20 20" fill="none" xmlns="http://www.w3.org/2000/svg">
<path d="M8.125 2.5H4.79167C4.21018 2.5 3.91944 2.5 3.68286 2.57177C3.15019 2.73335 2.73335 3.15019 2.57177 3.68286C2.5 3.91944 2.5 4.21018 2.5 4.79167C2.5 5.37315 2.5 5.66389 2.57177 5.90048C2.73335 6.43314 3.15019 6.84998 3.68286 7.01157C3.91944 7.08333 4.21018 7.08333 4.79167 7.08333H8.125C8.7065 7.08333 8.99725 7.08333 9.23383 7.01157C9.7665 6.84998 10.1833 6.43314 10.3449 5.90048C10.4167 5.66389 10.4167 5.37315 10.4167 4.79167C10.4167 4.21018 10.4167 3.91944 10.3449 3.68286C10.1833 3.15019 9.7665 2.73335 9.23383 2.57177C8.99725 2.5 8.7065 2.5 8.125 2.5Z" stroke="white" stroke-width="1.5" stroke-linejoin="round"/>
<path d="M17.4993 8.125V4.79167C17.4993 4.21018 17.4993 3.91944 17.4276 3.68286C17.266 3.15019 16.8492 2.73335 16.3165 2.57177C16.0799 2.5 15.7892 2.5 15.2077 2.5C14.6262 2.5 14.3354 2.5 14.0988 2.57177C13.5662 2.73335 13.1493 3.15019 12.9878 3.68286C12.916 3.91944 12.916 4.21018 12.916 4.79167V8.125C12.916 8.7065 12.916 8.99725 12.9878 9.23383C13.1493 9.7665 13.5662 10.1833 14.0988 10.3449C14.3354 10.4167 14.6262 10.4167 15.2077 10.4167C15.7892 10.4167 16.0799 10.4167 16.3165 10.3449C16.8492 10.1833 17.266 9.7665 17.4276 9.23383C17.4993 8.99725 17.4993 8.7065 17.4993 8.125Z" stroke="white" stroke-width="1.5" stroke-linejoin="round"/>
<path d="M14.0988 17.4282C14.3354 17.5 14.6262 17.5 15.2077 17.5C15.7892 17.5 16.0799 17.5 16.3165 17.4282C16.8492 17.2666 17.266 16.8498 17.4276 16.3171C17.4993 16.0805 17.4993 15.7898 17.4993 15.2083C17.4993 14.6268 17.4993 14.336 17.4276 14.0995C17.266 13.5668 16.8492 13.15 16.3165 12.9884C16.0799 12.9166 15.7892 12.9166 15.2077 12.9166C14.6262 12.9166 14.3354 12.9166 14.0988 12.9884C13.5662 13.15 13.1493 13.5668 12.9878 14.0995C12.916 14.336 12.916 14.6268 12.916 15.2083C12.916 15.7898 12.916 16.0805 12.9878 16.3171C13.1493 16.8498 13.5662 17.2666 14.0988 17.4282Z" stroke="white" stroke-width="1.5" stroke-linejoin="round"/>
<path d="M7.08333 9.58337H5.83333C4.26198 9.58337 3.47631 9.58337 2.98816 10.0715C2.5 10.5597 2.5 11.3454 2.5 12.9167V14.1667C2.5 15.738 2.5 16.5237 2.98816 17.0119C3.47631 17.5 4.26198 17.5 5.83333 17.5H7.08333C8.65467 17.5 9.44033 17.5 9.9285 17.0119C10.4167 16.5237 10.4167 15.738 10.4167 14.1667V12.9167C10.4167 11.3454 10.4167 10.5597 9.9285 10.0715C9.44033 9.58337 8.65467 9.58337 7.08333 9.58337Z" stroke="white" stroke-width="1.5" stroke-linejoin="round"/>
</svg>
