<svg width="34" height="28" viewBox="0 0 34 28" fill="none" xmlns="http://www.w3.org/2000/svg">
<path d="M7.48444 16.8496V12.2437L4.60581 13.8174L0 5.83403L10.1328 0H12.0903C12.4997 1.22822 12.9859 2.30291 13.5488 3.22407C14.1117 4.14523 15.1608 4.60581 16.6961 4.60581C18.2313 4.60581 19.2804 4.14523 19.8433 3.22407C20.4063 2.30291 20.8924 1.22822 21.3019 0H23.2594L33.3538 5.87241L28.7863 13.8174L25.9077 12.2437V19.613L23.4896 21.7241C23.3105 21.8776 23.1059 21.9994 22.8756 22.0895C22.6453 22.1795 22.415 22.2241 22.1847 22.223C22.0311 22.223 21.852 22.1719 21.6473 22.0696C21.4426 21.9672 21.2379 21.8393 21.0332 21.6857L16.9647 18.193C16.1459 17.4765 15.2247 16.9519 14.2012 16.6193C13.1777 16.2866 12.1414 16.1203 11.0923 16.1203C10.4782 16.1203 9.87025 16.1781 9.26842 16.2939C8.66661 16.4095 8.07194 16.5947 7.48444 16.8496ZM5.41183 25.14L3.41598 22.7988L6.7552 19.9585C7.34371 19.4468 8.01564 19.0563 8.771 18.7871C9.52635 18.5179 10.3129 18.3839 11.1308 18.3849C11.9485 18.3859 12.729 18.5204 13.472 18.7886C14.215 19.0568 14.8803 19.4468 15.4678 19.9585L19.9201 23.7583C20.2272 24.0142 20.5921 24.2128 21.0148 24.354C21.4375 24.4952 21.8659 24.5653 22.2998 24.5643C22.7604 24.5643 23.1892 24.5004 23.5864 24.3725C23.9835 24.2445 24.335 24.0398 24.6411 23.7583L27.9803 20.8796L29.9761 23.2594L26.6369 26.0996C26.0484 26.6113 25.3831 26.9951 24.6411 27.2511C23.8991 27.5069 23.1186 27.6349 22.2998 27.6349C21.481 27.6349 20.6944 27.5069 19.9401 27.2511C19.1857 26.9951 18.5139 26.6113 17.9243 26.0996L13.472 22.2998C13.1649 22.0439 12.8134 21.8458 12.4173 21.7057C12.0212 21.5654 11.5924 21.4949 11.1308 21.4938C10.6957 21.4938 10.2674 21.5644 9.84573 21.7057C9.424 21.8469 9.05913 22.0449 8.75104 22.2998L5.41183 25.14Z" fill="url(#paint0_linear_329_4378)"/>
<defs>
<linearGradient id="paint0_linear_329_4378" x1="0" y1="13.8174" x2="33.3538" y2="13.8174" gradientUnits="userSpaceOnUse">
<stop stop-color="#0051FF"/>
<stop offset="1" stop-color="#D8E4FF"/>
</linearGradient>
</defs>
</svg>
