<svg width="20" height="20" viewBox="0 0 20 20" fill="none" xmlns="http://www.w3.org/2000/svg">
<path d="M17.1589 6.66663H3.82552C3.36528 6.66663 2.99219 7.03972 2.99219 7.49996V9.16663C2.99219 9.62686 3.36528 9.99996 3.82552 9.99996H17.1589C17.6191 9.99996 17.9922 9.62686 17.9922 9.16663V7.49996C17.9922 7.03972 17.6191 6.66663 17.1589 6.66663Z" stroke="white" stroke-linecap="round" stroke-linejoin="round"/>
<path d="M10.4922 6.66663V17.5" stroke="white" stroke-linecap="round" stroke-linejoin="round"/>
<path d="M16.3249 10V15.8333C16.3249 16.2754 16.1493 16.6993 15.8367 17.0118C15.5242 17.3244 15.1002 17.5 14.6582 17.5H6.32487C5.88284 17.5 5.45892 17.3244 5.14636 17.0118C4.8338 16.6993 4.6582 16.2754 4.6582 15.8333V10" stroke="white" stroke-linecap="round" stroke-linejoin="round"/>
<path d="M6.74154 6.66667C6.189 6.66667 5.6591 6.44717 5.2684 6.05647C4.8777 5.66577 4.6582 5.13587 4.6582 4.58333C4.6582 4.0308 4.8777 3.50089 5.2684 3.11019C5.6591 2.71949 6.189 2.5 6.74154 2.5C7.54544 2.48599 8.33322 2.87605 9.00215 3.6193C9.67108 4.36255 10.1901 5.4245 10.4915 6.66667C10.793 5.4245 11.312 4.36255 11.9809 3.6193C12.6498 2.87605 13.4376 2.48599 14.2415 2.5C14.7941 2.5 15.324 2.71949 15.7147 3.11019C16.1054 3.50089 16.3249 4.0308 16.3249 4.58333C16.3249 5.13587 16.1054 5.66577 15.7147 6.05647C15.324 6.44717 14.7941 6.66667 14.2415 6.66667" stroke="white" stroke-linecap="round" stroke-linejoin="round"/>
</svg>
