<svg width="20" height="20" viewBox="0 0 20 20" fill="none" xmlns="http://www.w3.org/2000/svg">
<path d="M15 15C16.3807 15 17.5 13.8807 17.5 12.5C17.5 11.1193 16.3807 10 15 10C13.6193 10 12.5 11.1193 12.5 12.5C12.5 13.8807 13.6193 15 15 15Z" stroke="white" stroke-width="1.66667" stroke-linecap="round" stroke-linejoin="round"/>
<path d="M7.49935 9.16667C9.3403 9.16667 10.8327 7.67428 10.8327 5.83333C10.8327 3.99238 9.3403 2.5 7.49935 2.5C5.6584 2.5 4.16602 3.99238 4.16602 5.83333C4.16602 7.67428 5.6584 9.16667 7.49935 9.16667Z" stroke="white" stroke-width="1.66667" stroke-linecap="round" stroke-linejoin="round"/>
<path d="M8.33268 12.5H4.99935C4.11529 12.5 3.26745 12.8512 2.64233 13.4763C2.01721 14.1014 1.66602 14.9493 1.66602 15.8333V17.5" stroke="white" stroke-width="1.66667" stroke-linecap="round" stroke-linejoin="round"/>
<path d="M18.084 13.6666L17.334 13.4166" stroke="white" stroke-width="1.66667" stroke-linecap="round" stroke-linejoin="round"/>
<path d="M12.666 11.5833L11.916 11.3333" stroke="white" stroke-width="1.66667" stroke-linecap="round" stroke-linejoin="round"/>
<path d="M13.834 15.5834L14.084 14.8334" stroke="white" stroke-width="1.66667" stroke-linecap="round" stroke-linejoin="round"/>
<path d="M15.916 10.1666L16.166 9.41663" stroke="white" stroke-width="1.66667" stroke-linecap="round" stroke-linejoin="round"/>
<path d="M16.3333 15.5833L16 14.75" stroke="white" stroke-width="1.66667" stroke-linecap="round" stroke-linejoin="round"/>
<path d="M13.9993 10.25L13.666 9.41663" stroke="white" stroke-width="1.66667" stroke-linecap="round" stroke-linejoin="round"/>
<path d="M11.916 13.8333L12.7493 13.5" stroke="white" stroke-width="1.66667" stroke-linecap="round" stroke-linejoin="round"/>
<path d="M17.25 11.5001L18.0833 11.1667" stroke="white" stroke-width="1.66667" stroke-linecap="round" stroke-linejoin="round"/>
</svg>
