<svg width="20" height="20" viewBox="0 0 20 20" fill="none" xmlns="http://www.w3.org/2000/svg">
<path d="M16.9835 2.88329L13.3335 1.66663C13.3335 2.55068 12.9823 3.39853 12.3572 4.02365C11.7321 4.64877 10.8842 4.99996 10.0002 4.99996C9.1161 4.99996 8.26825 4.64877 7.64313 4.02365C7.01801 3.39853 6.66682 2.55068 6.66682 1.66663L3.01682 2.88329C2.63964 3.00895 2.3198 3.26531 2.11503 3.60608C1.91027 3.94685 1.83405 4.3496 1.90016 4.74163L2.38349 7.63329C2.41522 7.82905 2.51572 8.00708 2.66694 8.13539C2.81816 8.26369 3.01017 8.33386 3.20849 8.33329H5.00016V16.6666C5.00016 17.5833 5.75016 18.3333 6.66682 18.3333H13.3335C13.7755 18.3333 14.1994 18.1577 14.512 17.8451C14.8246 17.5326 15.0002 17.1087 15.0002 16.6666V8.33329H16.7918C16.9901 8.33386 17.1822 8.26369 17.3334 8.13539C17.4846 8.00708 17.5851 7.82905 17.6168 7.63329L18.1002 4.74163C18.1663 4.3496 18.09 3.94685 17.8853 3.60608C17.6805 3.26531 17.3607 3.00895 16.9835 2.88329Z" stroke="white" stroke-linecap="round" stroke-linejoin="round"/>
</svg>
