<svg width="24" height="24" viewBox="0 0 24 24" fill="none" xmlns="http://www.w3.org/2000/svg">
<path d="M15.9889 20.9863V18.9876C15.9889 17.9275 15.5678 16.9107 14.8181 16.161C14.0685 15.4114 13.0517 14.9902 11.9915 14.9902H5.99544C4.93527 14.9902 3.91851 15.4114 3.16886 16.161C2.4192 16.9107 1.99805 17.9275 1.99805 18.9876V20.9863" stroke="#FE9A00" stroke-width="1.9987" stroke-linecap="round" stroke-linejoin="round"/>
<path d="M8.99349 10.9928C11.2012 10.9928 12.9909 9.20314 12.9909 6.99544C12.9909 4.78774 11.2012 2.99805 8.99349 2.99805C6.78579 2.99805 4.99609 4.78774 4.99609 6.99544C4.99609 9.20314 6.78579 10.9928 8.99349 10.9928Z" stroke="#FE9A00" stroke-width="1.9987" stroke-linecap="round" stroke-linejoin="round"/>
<path d="M21.9863 20.9863V18.9876C21.9857 18.1019 21.6909 17.2415 21.1482 16.5415C20.6056 15.8415 19.8459 15.3415 18.9883 15.1201" stroke="#FE9A00" stroke-width="1.9987" stroke-linecap="round" stroke-linejoin="round"/>
<path d="M15.9902 3.12793C16.8501 3.34809 17.6122 3.84816 18.1565 4.54931C18.7007 5.25047 18.9961 6.11281 18.9961 7.00041C18.9961 7.888 18.7007 8.75035 18.1565 9.4515C17.6122 10.1527 16.8501 10.6527 15.9902 10.8729" stroke="#FE9A00" stroke-width="1.9987" stroke-linecap="round" stroke-linejoin="round"/>
</svg>
