<svg width="24" height="24" viewBox="0 0 24 24" fill="none" xmlns="http://www.w3.org/2000/svg">
<path d="M5.99609 21.9856V3.99736C5.99609 3.46727 6.20667 2.95889 6.5815 2.58406C6.95633 2.20923 7.4647 1.99866 7.99479 1.99866H15.9896C16.5197 1.99866 17.028 2.20923 17.4029 2.58406C17.7777 2.95889 17.9883 3.46727 17.9883 3.99736V21.9856H5.99609Z" stroke="#AD46FF" stroke-width="1.9987" stroke-linecap="round" stroke-linejoin="round"/>
<path d="M5.99544 11.9922H3.99674C3.46666 11.9922 2.95828 12.2028 2.58345 12.5776C2.20862 12.9524 1.99805 13.4608 1.99805 13.9909V19.987C1.99805 20.5171 2.20862 21.0254 2.58345 21.4003C2.95828 21.7751 3.46666 21.9857 3.99674 21.9857H5.99544" stroke="#AD46FF" stroke-width="1.9987" stroke-linecap="round" stroke-linejoin="round"/>
<path d="M17.9883 8.99414H19.987C20.5171 8.99414 21.0254 9.20472 21.4003 9.57955C21.7751 9.95437 21.9857 10.4628 21.9857 10.9928V19.987C21.9857 20.5171 21.7751 21.0254 21.4003 21.4003C21.0254 21.7751 20.5171 21.9857 19.987 21.9857H17.9883" stroke="#AD46FF" stroke-width="1.9987" stroke-linecap="round" stroke-linejoin="round"/>
<path d="M9.99414 5.99609H13.9915" stroke="#AD46FF" stroke-width="1.9987" stroke-linecap="round" stroke-linejoin="round"/>
<path d="M9.99414 9.99353H13.9915" stroke="#AD46FF" stroke-width="1.9987" stroke-linecap="round" stroke-linejoin="round"/>
<path d="M9.99414 13.9908H13.9915" stroke="#AD46FF" stroke-width="1.9987" stroke-linecap="round" stroke-linejoin="round"/>
<path d="M9.99414 17.9883H13.9915" stroke="#AD46FF" stroke-width="1.9987" stroke-linecap="round" stroke-linejoin="round"/>
</svg>
