<svg width="24" height="24" viewBox="0 0 24 24" fill="none" xmlns="http://www.w3.org/2000/svg">
<path d="M10.9928 21.7158C11.2967 21.8913 11.6413 21.9836 11.9922 21.9836C12.343 21.9836 12.6877 21.8913 12.9915 21.7158L19.987 17.7184C20.2905 17.5432 20.5426 17.2912 20.718 16.9878C20.8934 16.6843 20.986 16.3401 20.9863 15.9896V7.99478C20.986 7.64428 20.8934 7.30004 20.718 6.99659C20.5426 6.69314 20.2905 6.44115 19.987 6.2659L12.9915 2.26851C12.6877 2.09308 12.343 2.00073 11.9922 2.00073C11.6413 2.00073 11.2967 2.09308 10.9928 2.26851L3.9974 6.2659C3.69386 6.44115 3.44174 6.69314 3.26633 6.99659C3.09093 7.30004 2.99841 7.64428 2.99805 7.99478V15.9896C2.99841 16.3401 3.09093 16.6843 3.26633 16.9878C3.44174 17.2912 3.69386 17.5432 3.9974 17.7184L10.9928 21.7158Z" stroke="#2B7FFF" stroke-width="1.9987" stroke-linecap="round" stroke-linejoin="round"/>
<path d="M11.9922 21.9857V11.9922" stroke="#2B7FFF" stroke-width="1.9987" stroke-linecap="round" stroke-linejoin="round"/>
<path d="M3.28711 6.99548L11.9914 11.9922L20.6958 6.99548" stroke="#2B7FFF" stroke-width="1.9987" stroke-linecap="round" stroke-linejoin="round"/>
<path d="M7.49609 4.26721L16.4902 9.41386" stroke="#2B7FFF" stroke-width="1.9987" stroke-linecap="round" stroke-linejoin="round"/>
</svg>
